HIERARCHY
ROOT Hips
{
	OFFSET 6.586116 105.487152 -0.371975
	CHANNELS 6 Xposition Yposition Zposition Xrotation Yrotation Zrotation
	JOINT Chest
	{
		OFFSET 2.346554 13.431412 0.495050
		CHANNELS 3 Xrotation Yrotation Zrotation
		JOINT Chest2
		{
			OFFSET -0.831182 20.616913 5.772245
			CHANNELS 3 Xrotation Yrotation Zrotation
			JOINT Chest3
			{
				OFFSET 0.098285 14.920364 0.439534
				CHANNELS 3 Xrotation Yrotation Zrotation
				JOINT Neck
				{
					OFFSET -0.096636 17.092560 2.539863
					CHANNELS 3 Xrotation Yrotation Zrotation
					JOINT Head
					{
						OFFSET -3.582272 9.378143 3.007578
						CHANNELS 3 Xrotation Yrotation Zrotation
						End Site
						{
							OFFSET -3.555289 9.407776 2.946424
						}
					}
				}
				JOINT LeftCollar
				{
					OFFSET 4.046350 12.694672 4.927126
					CHANNELS 3 Xrotation Yrotation Zrotation
					JOINT LeftUpArm
					{
						OFFSET 15.589654 4.751022 -6.549030
						CHANNELS 3 Xrotation Yrotation Zrotation
						JOINT LeftLowArm
						{
							OFFSET 32.614502 8.012054 3.439271
							CHANNELS 3 Xrotation Yrotation Zrotation
							JOINT LeftHand
							{
								OFFSET 26.390129 4.135696 13.689542
								CHANNELS 3 Xrotation Yrotation Zrotation
								End Site
								{
									OFFSET 5.767723 0.903900 2.991919
								}
							}
						}
					}
				}
				JOINT RightCollar
				{
					OFFSET -4.366384 12.685120 4.672368
					CHANNELS 3 Xrotation Yrotation Zrotation
					JOINT RightUpArm
					{
						OFFSET -16.289289 2.890656 -5.899107
						CHANNELS 3 Xrotation Yrotation Zrotation
						JOINT RightLowArm
						{
							OFFSET -30.073887 10.377441 11.296200
							CHANNELS 3 Xrotation Yrotation Zrotation
							JOINT RightHand
							{
								OFFSET -26.438488 7.638931 11.983639
								CHANNELS 3 Xrotation Yrotation Zrotation
								End Site
								{
									OFFSET -5.778389 1.669601 2.619143
								}
							}
						}
					}
				}
			}
		}
	}
	JOINT LeftUpLeg
	{
		OFFSET 9.689858 -1.761292 1.850309
		CHANNELS 3 Xrotation Yrotation Zrotation
		JOINT LeftLowLeg
		{
			OFFSET 1.775589 -47.309540 1.625988
			CHANNELS 3 Xrotation Yrotation Zrotation
			JOINT LeftFoot
			{
				OFFSET -4.354452 -42.462692 -13.361378
				CHANNELS 3 Xrotation Yrotation Zrotation
				JOINT LeftToe
				{
					OFFSET -2.063831 -16.840668 16.483078
					CHANNELS 3 Xrotation Yrotation Zrotation
					End Site
					{
						OFFSET 0.904757 -2.818117 23.469097
					}
				}
			}
		}
	}
	JOINT RightUpLeg
	{
		OFFSET -9.689896 1.761093 -1.850317
		CHANNELS 3 Xrotation Yrotation Zrotation
		JOINT RightLowLeg
		{
			OFFSET -33.259239 -25.364586 22.236761
			CHANNELS 3 Xrotation Yrotation Zrotation
			JOINT RightFoot
			{
				OFFSET 10.598431 -43.255375 -4.150396
				CHANNELS 3 Xrotation Yrotation Zrotation
				JOINT RightToe
				{
					OFFSET -12.229565 -15.684263 12.806198
					CHANNELS 3 Xrotation Yrotation Zrotation
					End Site
					{
						OFFSET -19.437000 -1.473425 13.401049
					}
				}
			}
		}
	}
}
MOTION
Frames: 7
Frame Time: 0.033333
-1.743928 105.596596 -1.111720 4.649157 10.539102 10.034613 -10.859955 2.943717 -8.809834 3.290557 1.071984 0.499055 1.191675 -7.142083 -2.782747 -11.198499 19.586618 -10.694702 0.000003 -0.000002 -0.000000 10.201094 -0.418819 -37.498094 10.430110 -11.493952 -53.112548 13.696741 0.475205 3.446328 -0.000000 -0.000003 0.000003 7.496972 -10.119545 33.814299 26.017022 4.606222 59.869695 21.498884 18.530564 -6.463455 0.000002 -0.000002 0.000001 -1.718426 -0.289535 -6.940484 -1.927927 4.310817 7.198931 -4.830110 -10.171340 -2.412063 -0.000000 0.000000 -0.000001 24.532378 4.427907 37.421111 -25.601752 -6.388938 -60.164445 -12.877046 47.441090 7.635518 -0.000000 -0.000002 0.000003 
-1.744190 105.600883 -1.116284 4.645855 10.611725 9.977142 -11.092480 2.959629 -8.730817 3.315629 1.107695 0.471810 1.335343 -7.430260 -2.778337 -11.112972 19.770461 -10.777890 0.000003 -0.000002 -0.000000 10.127530 0.065439 -37.670160 10.464471 -11.573691 -53.092894 13.826415 0.490805 3.574374 -0.000002 -0.000002 0.000003 7.583212 -9.620006 33.835856 26.006862 4.736824 59.844915 21.450211 18.193005 -6.624888 0.000002 -0.000000 -0.000001 -1.683047 -0.313756 -6.886631 -2.071148 4.408832 7.212062 -4.944882 -10.353995 -2.487717 0.000000 -0.000001 0.000001 24.743743 4.446140 37.539959 -26.129888 -6.059798 -60.216737 -12.835648 47.462664 7.638997 -0.000000 -0.000002 0.000002 
-1.743641 105.607109 -1.119557 4.522197 10.622942 9.937445 -11.048760 2.922338 -8.650380 3.062077 1.103650 0.477550 1.571549 -7.684177 -2.803115 -11.329301 19.928347 -10.831498 0.000001 0.000000 -0.000001 10.184983 0.594113 -37.714262 10.633560 -11.684336 -53.073661 14.106293 0.487758 3.711231 -0.000000 0.000002 0.000001 7.813619 -8.926596 33.863456 26.009425 5.392944 59.627340 21.495046 17.854132 -7.221580 0.000003 0.000005 -0.000001 -1.692624 -0.311610 -6.865321 -1.823158 4.381761 7.215233 -4.916736 -10.062451 -2.317309 -0.000000 0.000001 -0.000000 24.768846 4.489068 37.576088 -26.128713 -6.065889 -60.250745 -12.908336 47.303059 7.518663 -0.000003 0.000004 -0.000000 
-1.738740 105.611610 -1.122798 5.012918 10.679034 9.943866 -12.040935 3.136736 -8.779821 4.601805 1.022829 0.786452 0.683948 -7.507561 -2.971335 -11.132927 19.876182 -10.769723 0.000001 -0.000002 -0.000000 10.295630 0.503364 -37.749991 10.727487 -11.805407 -53.102945 14.120279 0.659062 3.756097 -0.000000 0.000000 0.000003 7.910267 -8.904855 33.994063 26.137696 5.506507 59.454147 21.631469 18.189506 -7.734945 0.000003 0.000003 -0.000001 -2.301738 -0.293954 -6.996828 -1.582862 4.313941 7.206836 -5.073045 -10.092011 -2.363023 -0.000001 0.000000 0.000001 24.189641 4.560430 37.334985 -25.985953 -6.132362 -60.143559 -12.692809 47.048348 7.434541 0.000002 0.000001 0.000002 
-1.729305 105.615547 -1.124345 4.932364 10.785103 9.958478 -11.781086 3.034756 -8.653643 4.579667 1.018232 0.817217 0.466968 -7.489247 -3.113962 -11.073731 19.831174 -10.659527 0.000003 0.000001 -0.000003 10.477416 0.354952 -37.597193 10.838258 -12.310882 -53.228200 14.275087 0.815074 4.187809 -0.000003 -0.000001 0.000001 8.064605 -8.913944 33.943452 26.339890 5.831674 59.500257 21.748794 17.990291 -8.166865 0.000004 0.000002 0.000000 -2.355824 -0.320931 -7.048530 -1.518736 4.234513 7.232288 -4.740793 -10.044813 -2.314682 -0.000000 -0.000001 -0.000000 24.344473 4.539449 37.261510 -25.886989 -6.100004 -60.017665 -12.572485 46.935486 7.437551 0.000002 0.000003 0.000001 
-1.723313 105.620659 -1.128370 5.295199 11.083268 9.896580 -12.566996 3.183761 -8.648418 5.399593 0.906738 1.080406 0.154663 -7.477099 -3.350310 -11.807887 19.703168 -10.533291 0.000003 -0.000000 0.000001 10.501662 0.082974 -37.638082 10.884843 -12.431674 -53.039909 14.345588 0.769678 4.108991 0.000003 -0.000002 0.000004 8.048470 -8.935003 33.898905 26.420601 5.750420 59.635440 21.734523 17.874672 -8.236497 0.000002 0.000002 0.000001 -2.813279 -0.278960 -7.099421 -1.365918 4.215950 7.305709 -4.845531 -10.137417 -2.373745 -0.000001 0.000001 0.000001 24.063839 4.559407 37.179274 -25.841360 -6.116316 -59.868186 -12.664320 46.620979 7.344452 -0.000001 0.000006 0.000001 
-1.715573 105.627655 -1.131106 5.158093 11.037061 9.982948 -12.419440 3.162160 -8.667986 5.372690 0.968805 1.016988 0.173540 -7.594338 -3.274748 -11.882475 19.824047 -10.620108 0.000003 -0.000000 0.000001 10.517422 0.169644 -37.699205 10.864127 -12.418588 -53.010164 14.208568 1.150206 4.063822 0.000003 -0.000003 0.000001 8.069556 -9.054326 33.976489 26.386293 5.787553 59.524108 21.655632 17.793946 -8.016828 0.000003 -0.000000 0.000001 -2.373258 -0.327137 -7.145019 -1.913103 4.339123 7.288865 -4.551946 -10.302802 -2.401395 -0.000001 0.000000 0.000001 24.272768 4.466153 37.089321 -25.863391 -6.146847 -59.788081 -12.463805 46.920292 7.455678 0.000000 0.000003 0.000004 
